<svg width="14" height="16" viewBox="0 0 14 16" fill="none" xmlns="http://www.w3.org/2000/svg">
<path d="M12.3371 2.43994C13.0988 2.43994 13.7433 3.08447 13.7433 3.84619V14.1587C13.7433 14.9497 13.0988 15.5649 12.3371 15.5649H2.02456C1.23355 15.5649 0.618315 14.9497 0.618315 14.1587V3.84619C0.618315 3.08447 1.23355 2.43994 2.02456 2.43994H3.43081V0.916504C3.43081 0.740723 3.5773 0.564941 3.78238 0.564941H4.95425C5.13003 0.564941 5.30581 0.740723 5.30581 0.916504V2.43994H9.05581V0.916504C9.05581 0.740723 9.2023 0.564941 9.40738 0.564941H10.5793C10.755 0.564941 10.9308 0.740723 10.9308 0.916504V2.43994H12.3371ZM12.1613 14.1587C12.2492 14.1587 12.3371 14.1001 12.3371 13.9829V5.25244H2.02456V13.9829C2.02456 14.1001 2.08316 14.1587 2.20035 14.1587H12.1613ZM10.6085 8.29932L6.4191 12.4302C6.30191 12.5767 6.06753 12.5767 5.92105 12.4302L3.72378 10.2036C3.6066 10.0864 3.6066 9.85205 3.72378 9.70557L4.39761 9.06104C4.5441 8.91455 4.74917 8.91455 4.89566 9.06104L6.18472 10.3501L9.43667 7.12744C9.58316 6.98096 9.81753 6.98096 9.93472 7.12744L10.6085 7.80127C10.7257 7.94775 10.7257 8.15283 10.6085 8.29932Z" fill="white"/>
</svg>
