<?xml version="1.0" encoding="UTF-8" standalone="no"?>
<svg
   xmlns:dc="http://purl.org/dc/elements/1.1/"
   xmlns:cc="http://creativecommons.org/ns#"
   xmlns:rdf="http://www.w3.org/1999/02/22-rdf-syntax-ns#"
   xmlns:svg="http://www.w3.org/2000/svg"
   xmlns="http://www.w3.org/2000/svg"
   viewBox="0 0 1007.852 421.33334"
   height="421.33334"
   width="1007.852"
   xml:space="preserve"
   id="svg2"
   version="1.1"><metadata
     id="metadata8"><rdf:RDF><cc:Work
         rdf:about=""><dc:format>image/svg+xml</dc:format><dc:type
           rdf:resource="http://purl.org/dc/dcmitype/StillImage" /></cc:Work></rdf:RDF></metadata><defs
     id="defs6"><linearGradient
       id="linearGradient32"
       spreadMethod="pad"
       gradientTransform="matrix(174.79129,0,0,-174.79129,29.877788,157.67726)"
       gradientUnits="userSpaceOnUse"
       y2="0"
       x2="1"
       y1="0"
       x1="0"><stop
         id="stop24"
         offset="0"
         style="stop-opacity:1;stop-color:#237daf" /><stop
         id="stop26"
         offset="0.5"
         style="stop-opacity:1;stop-color:#289bce" /><stop
         id="stop28"
         offset="0.907821"
         style="stop-opacity:1;stop-color:#28b6ea" /><stop
         id="stop30"
         offset="1"
         style="stop-opacity:1;stop-color:#28b6ea" /></linearGradient><linearGradient
       id="linearGradient64"
       spreadMethod="pad"
       gradientTransform="matrix(-47.49427,167.92033,167.92033,47.49427,101.82307,157.14551)"
       gradientUnits="userSpaceOnUse"
       y2="0"
       x2="1"
       y1="0"
       x1="0"><stop
         id="stop48"
         offset="0"
         style="stop-opacity:1;stop-color:#1c6a9c" /><stop
         id="stop50"
         offset="0.0642458"
         style="stop-opacity:1;stop-color:#1c6a9c" /><stop
         id="stop52"
         offset="0.14822781"
         style="stop-opacity:1;stop-color:#1c6a9c" /><stop
         id="stop54"
         offset="0.606145"
         style="stop-opacity:1;stop-color:#169bce" /><stop
         id="stop56"
         offset="0.71038573"
         style="stop-opacity:1;stop-color:#169bce" /><stop
         id="stop58"
         offset="0.972067"
         style="stop-opacity:1;stop-color:#169bce" /><stop
         id="stop60"
         offset="0.98856564"
         style="stop-opacity:1;stop-color:#169bce" /><stop
         id="stop62"
         offset="1"
         style="stop-opacity:1;stop-color:#169bce" /></linearGradient><linearGradient
       id="linearGradient88"
       spreadMethod="pad"
       gradientTransform="matrix(33.311516,0,0,-33.311516,100.81145,172.43236)"
       gradientUnits="userSpaceOnUse"
       y2="0"
       x2="1"
       y1="0"
       x1="0"><stop
         id="stop80"
         offset="0"
         style="stop-opacity:1;stop-color:#237daf" /><stop
         id="stop82"
         offset="0.5"
         style="stop-opacity:1;stop-color:#289bce" /><stop
         id="stop84"
         offset="0.907821"
         style="stop-opacity:1;stop-color:#28b6ea" /><stop
         id="stop86"
         offset="1"
         style="stop-opacity:1;stop-color:#28b6ea" /></linearGradient><linearGradient
       id="linearGradient114"
       spreadMethod="pad"
       gradientTransform="matrix(171.54375,0,0,-171.54375,71.078949,164.17804)"
       gradientUnits="userSpaceOnUse"
       y2="0"
       x2="1"
       y1="0"
       x1="0"><stop
         id="stop104"
         offset="0"
         style="stop-opacity:1;stop-color:#6fbd89" /><stop
         id="stop106"
         offset="0.0642458"
         style="stop-opacity:1;stop-color:#6fbd89" /><stop
         id="stop108"
         offset="0.368715"
         style="stop-opacity:1;stop-color:#56bbb0" /><stop
         id="stop110"
         offset="0.695531"
         style="stop-opacity:1;stop-color:#25b5e2" /><stop
         id="stop112"
         offset="1"
         style="stop-opacity:1;stop-color:#489ad4" /></linearGradient><linearGradient
       id="linearGradient136"
       spreadMethod="pad"
       gradientTransform="matrix(121.13999,0,0,-121.13999,101.84926,143.09647)"
       gradientUnits="userSpaceOnUse"
       y2="0"
       x2="1"
       y1="0"
       x1="0"><stop
         id="stop130"
         offset="0"
         style="stop-opacity:1;stop-color:#3495d2" /><stop
         id="stop132"
         offset="0.751397"
         style="stop-opacity:1;stop-color:#28b6ea" /><stop
         id="stop134"
         offset="1"
         style="stop-opacity:1;stop-color:#65c5e0" /></linearGradient><linearGradient
       id="linearGradient160"
       spreadMethod="pad"
       gradientTransform="matrix(-93.689949,0,0,93.689949,222.98926,139.71284)"
       gradientUnits="userSpaceOnUse"
       y2="0"
       x2="1"
       y1="0"
       x1="0"><stop
         id="stop152"
         offset="0"
         style="stop-opacity:1;stop-color:#237daf" /><stop
         id="stop154"
         offset="0.5"
         style="stop-opacity:1;stop-color:#289bce" /><stop
         id="stop156"
         offset="0.907821"
         style="stop-opacity:1;stop-color:#28b6ea" /><stop
         id="stop158"
         offset="1"
         style="stop-opacity:1;stop-color:#28b6ea" /></linearGradient><linearGradient
       id="linearGradient186"
       spreadMethod="pad"
       gradientTransform="matrix(73.328148,0,0,-73.328148,177.60861,195.30423)"
       gradientUnits="userSpaceOnUse"
       y2="0"
       x2="1"
       y1="0"
       x1="0"><stop
         id="stop176"
         offset="0"
         style="stop-opacity:1;stop-color:#6fbd89" /><stop
         id="stop178"
         offset="0.0642458"
         style="stop-opacity:1;stop-color:#6fbd89" /><stop
         id="stop180"
         offset="0.368715"
         style="stop-opacity:1;stop-color:#56bbb0" /><stop
         id="stop182"
         offset="0.695531"
         style="stop-opacity:1;stop-color:#25b5e2" /><stop
         id="stop184"
         offset="1"
         style="stop-opacity:1;stop-color:#489ad4" /></linearGradient><linearGradient
       id="linearGradient212"
       spreadMethod="pad"
       gradientTransform="matrix(54.466713,0,0,-54.466713,191.60643,211.14743)"
       gradientUnits="userSpaceOnUse"
       y2="0"
       x2="1"
       y1="0"
       x1="0"><stop
         id="stop202"
         offset="0"
         style="stop-opacity:1;stop-color:#6fbd89" /><stop
         id="stop204"
         offset="0.0642458"
         style="stop-opacity:1;stop-color:#6fbd89" /><stop
         id="stop206"
         offset="0.368715"
         style="stop-opacity:1;stop-color:#56bbb0" /><stop
         id="stop208"
         offset="0.695531"
         style="stop-opacity:1;stop-color:#25b5e2" /><stop
         id="stop210"
         offset="1"
         style="stop-opacity:1;stop-color:#489ad4" /></linearGradient><linearGradient
       id="linearGradient238"
       spreadMethod="pad"
       gradientTransform="matrix(39.589271,0,0,-39.589271,204.68105,228.30743)"
       gradientUnits="userSpaceOnUse"
       y2="0"
       x2="1"
       y1="0"
       x1="0"><stop
         id="stop228"
         offset="0"
         style="stop-opacity:1;stop-color:#6fbd89" /><stop
         id="stop230"
         offset="0.0586592"
         style="stop-opacity:1;stop-color:#6fbd89" /><stop
         id="stop232"
         offset="0.368715"
         style="stop-opacity:1;stop-color:#56bbb0" /><stop
         id="stop234"
         offset="0.695531"
         style="stop-opacity:1;stop-color:#25b5e2" /><stop
         id="stop236"
         offset="1"
         style="stop-opacity:1;stop-color:#50c1e8" /></linearGradient><linearGradient
       id="linearGradient264"
       spreadMethod="pad"
       gradientTransform="matrix(92.398125,0,0,-92.398125,150.22458,106.60945)"
       gradientUnits="userSpaceOnUse"
       y2="0"
       x2="1"
       y1="0"
       x1="0"><stop
         id="stop254"
         offset="0"
         style="stop-opacity:1;stop-color:#6fbd89" /><stop
         id="stop256"
         offset="0.0642458"
         style="stop-opacity:1;stop-color:#6fbd89" /><stop
         id="stop258"
         offset="0.368715"
         style="stop-opacity:1;stop-color:#56bbb0" /><stop
         id="stop260"
         offset="0.695531"
         style="stop-opacity:1;stop-color:#25b5e2" /><stop
         id="stop262"
         offset="1"
         style="stop-opacity:1;stop-color:#489ad4" /></linearGradient><linearGradient
       id="linearGradient288"
       spreadMethod="pad"
       gradientTransform="matrix(65.515137,0,0,-65.515137,266.29898,151.44748)"
       gradientUnits="userSpaceOnUse"
       y2="0"
       x2="1"
       y1="0"
       x1="0"><stop
         id="stop280"
         offset="0"
         style="stop-opacity:1;stop-color:#237daf" /><stop
         id="stop282"
         offset="0.5"
         style="stop-opacity:1;stop-color:#289bce" /><stop
         id="stop284"
         offset="0.907821"
         style="stop-opacity:1;stop-color:#28b6ea" /><stop
         id="stop286"
         offset="1"
         style="stop-opacity:1;stop-color:#28b6ea" /></linearGradient><linearGradient
       id="linearGradient312"
       spreadMethod="pad"
       gradientTransform="matrix(83.665039,0,0,-83.665039,339.65216,151.44748)"
       gradientUnits="userSpaceOnUse"
       y2="0"
       x2="1"
       y1="0"
       x1="0"><stop
         id="stop304"
         offset="0"
         style="stop-opacity:1;stop-color:#237daf" /><stop
         id="stop306"
         offset="0.5"
         style="stop-opacity:1;stop-color:#289bce" /><stop
         id="stop308"
         offset="0.907821"
         style="stop-opacity:1;stop-color:#28b6ea" /><stop
         id="stop310"
         offset="1"
         style="stop-opacity:1;stop-color:#28b6ea" /></linearGradient><linearGradient
       id="linearGradient336"
       spreadMethod="pad"
       gradientTransform="matrix(81.90918,0,0,-81.90918,418.73209,151.44748)"
       gradientUnits="userSpaceOnUse"
       y2="0"
       x2="1"
       y1="0"
       x1="0"><stop
         id="stop328"
         offset="0"
         style="stop-opacity:1;stop-color:#237daf" /><stop
         id="stop330"
         offset="0.5"
         style="stop-opacity:1;stop-color:#289bce" /><stop
         id="stop332"
         offset="0.907821"
         style="stop-opacity:1;stop-color:#28b6ea" /><stop
         id="stop334"
         offset="1"
         style="stop-opacity:1;stop-color:#28b6ea" /></linearGradient><linearGradient
       id="linearGradient360"
       spreadMethod="pad"
       gradientTransform="matrix(74.882812,0,0,-74.882812,605.64618,151.44748)"
       gradientUnits="userSpaceOnUse"
       y2="0"
       x2="1"
       y1="0"
       x1="0"><stop
         id="stop352"
         offset="0"
         style="stop-opacity:1;stop-color:#237daf" /><stop
         id="stop354"
         offset="0.5"
         style="stop-opacity:1;stop-color:#289bce" /><stop
         id="stop356"
         offset="0.907821"
         style="stop-opacity:1;stop-color:#28b6ea" /><stop
         id="stop358"
         offset="1"
         style="stop-opacity:1;stop-color:#28b6ea" /></linearGradient><linearGradient
       id="linearGradient384"
       spreadMethod="pad"
       gradientTransform="matrix(18.096353,0,0,-18.096353,697.44403,151.44748)"
       gradientUnits="userSpaceOnUse"
       y2="0"
       x2="1"
       y1="0"
       x1="0"><stop
         id="stop376"
         offset="0"
         style="stop-opacity:1;stop-color:#237daf" /><stop
         id="stop378"
         offset="0.5"
         style="stop-opacity:1;stop-color:#289bce" /><stop
         id="stop380"
         offset="0.907821"
         style="stop-opacity:1;stop-color:#28b6ea" /><stop
         id="stop382"
         offset="1"
         style="stop-opacity:1;stop-color:#28b6ea" /></linearGradient><linearGradient
       id="linearGradient408"
       spreadMethod="pad"
       gradientTransform="matrix(69.747719,0,0,-69.747719,513.90448,151.44748)"
       gradientUnits="userSpaceOnUse"
       y2="0"
       x2="1"
       y1="0"
       x1="0"><stop
         id="stop400"
         offset="0"
         style="stop-opacity:1;stop-color:#237daf" /><stop
         id="stop402"
         offset="0.5"
         style="stop-opacity:1;stop-color:#289bce" /><stop
         id="stop404"
         offset="0.907821"
         style="stop-opacity:1;stop-color:#28b6ea" /><stop
         id="stop406"
         offset="1"
         style="stop-opacity:1;stop-color:#28b6ea" /></linearGradient></defs><g
     transform="matrix(1.3333333,0,0,-1.3333333,0,421.33333)"
     id="g10"><g
       id="g12"><g
         id="g14"><g
           id="g20"><g
             id="g22"><path
               id="path34"
               style="fill:url(#linearGradient32);stroke:none"
               d="M 122.518,275.242 C 95.407,271.267 72.766,257.594 55.171,234.352 v 0 C 35.823,208.795 27.274,179.04 30.568,145.748 v 0 C 34.76,103.368 54.38,72.077 88.066,52.154 v 0 C 108.124,40.292 129.807,36.687 152.32,40.421 v 0 c 18.231,3.024 34.658,10.949 49.302,23.414 v 0 c 1.245,1.06 1.063,0.909 0.883,0.759 v 0 c -0.217,-0.183 -0.433,-0.365 1.867,1.582 v 0 c -6.488,7.223 -17.541,19.445 -23.898,26.808 v 0 c -3.259,-2.276 -0.995,-0.581 -3.259,-2.276 v 0 C 162.272,79.518 145.451,75.723 127.563,78.042 v 0 C 91.623,82.7 64.396,117.019 64.377,157.628 v 0 c 0.025,3.295 0.127,6.57 0.48,9.861 v 0 c 4.274,39.897 34.996,70.547 71.068,70.6 v 0 c 15.006,0.021 41.278,-14.097 44.438,-15.543 v 0 c 6.545,7.455 17.558,19.527 24.306,26.755 v 0 c -3.837,3.012 -3.529,2.76 -3.837,3.012 v 0 c -19.312,15.819 -40.462,24.032 -63.492,24.031 v 0 c -4.856,0 -9.799,-0.365 -14.822,-1.102" /></g></g></g></g><g
       id="g36"><g
         id="g38"><g
           id="g44"><g
             id="g46"><path
               id="path66"
               style="fill:url(#linearGradient64);stroke:none"
               d="M 30.568,145.971 C 34.76,103.592 54.38,72.3 88.066,52.378 v 0 C 108.124,40.515 129.807,36.91 152.32,40.645 v 0 c 18.231,3.024 34.658,10.948 49.302,23.413 v 0 c 1.245,1.061 1.063,0.91 0.883,0.759 v 0 c -0.217,-0.183 -0.433,-0.364 1.867,1.582 v 0 c -6.488,7.222 -17.541,19.445 -23.898,26.808 v 0 c -3.259,-2.275 -0.995,-0.58 -3.259,-2.275 v 0 C 162.272,79.741 145.451,75.947 127.563,78.266 v 0 c -35.94,4.657 -63.167,38.976 -63.186,79.586 v 0 c 0.025,3.295 0.127,6.569 0.48,9.861 v 0 c -6.336,21.571 -32.189,18.83 -9.686,66.639 v 0 C 35.558,208.485 27.274,179.264 30.568,145.971" /></g></g></g></g><g
       id="g68"><g
         id="g70"><g
           id="g76"><g
             id="g78"><path
               id="path90"
               style="fill:url(#linearGradient88);stroke:none"
               d="m 100.812,172.433 c 0,-9.308 7.456,-16.852 16.655,-16.852 v 0 c 9.199,0 16.656,7.544 16.656,16.852 v 0 c 0,9.306 -7.457,16.851 -16.656,16.851 v 0 c -9.199,0 -16.655,-7.545 -16.655,-16.851" /></g></g></g></g><g
       id="g92"><g
         id="g94"><g
           id="g100"><g
             id="g102"><path
               id="path116"
               style="fill:url(#linearGradient114);stroke:none"
               d="m 128.551,231.089 c -14.012,-1.51 -26.921,-6.646 -37.313,-17.657 v 0 C 77.64,199.021 71.701,180.981 71.103,160.248 v 0 c -0.773,-26.81 17.142,-50.138 36.779,-59.466 v 0 c 8.81,-4.184 20.978,-3.662 30.467,-3.556 v 0 c 31.825,0.359 52.812,-0.248 84.64,-0.295 v 0 c 4.102,-0.007 19.56,-0.004 19.56,-0.004 v 0 l 0.074,19.337 c 0,0 -47.383,0.056 -71.088,0.056 v 0 -0.033 c -23.894,0 -47.79,0.026 -71.684,-0.029 v 0 c -3.377,-0.008 -6.09,1.089 -8.311,4.039 v 0 c -10,13.277 -14.963,28.264 -14.05,45.834 v 0 c 1.914,36.814 33.373,64.475 65.901,57.568 v 0 c 8.672,-1.843 16.643,-5.469 23.795,-11.283 v 0 c 0.859,-0.698 1.637,-1.872 3.027,-1.066 v 0 c 3.372,1.955 3.533,4.28 0.482,6.745 v 0 c -10.88,8.797 -22.89,13.334 -35.909,13.334 v 0 c -2.053,0 -4.132,-0.113 -6.235,-0.34" /></g></g></g></g><g
       id="g118"><g
         id="g120"><g
           id="g126"><g
             id="g128"><path
               id="path138"
               style="fill:url(#linearGradient136);stroke:none"
               d="m 113.757,139.502 c 13.011,-8.827 27.136,-10.319 41.784,-7.601 v 0 c 13.95,2.59 27.865,6.162 42.119,4.807 v 0 c 6.779,-0.644 8.042,-0.154 17.303,-3.97 v 0 c 1.608,-0.797 5.067,-2.125 8.026,-2.125 v 0 c -4.48,4.648 -9.032,8.263 -14.028,11.163 v 0 c -12.96,7.523 -26.696,8.472 -40.747,5.394 v 0 c -12.864,-2.818 -25.686,-5.438 -38.915,-4.815 v 0 c -9.532,0.447 -24.306,10.427 -27.45,13.226 v 0 c 0.028,-2.094 7.25,-12.919 11.908,-16.079" /></g></g></g></g><g
       id="g140"><g
         id="g142"><g
           id="g148"><g
             id="g150"><path
               id="path162"
               style="fill:url(#linearGradient160);stroke:none"
               d="m 168.214,147.17 c -12.864,-2.818 -25.686,-5.438 -38.915,-4.815 v 0 c 17.02,-3.743 36.259,-7.648 57.943,-5.452 v 0 c 6.983,0.249 18.241,0.397 27.721,-4.165 v 0 c 1.608,-0.797 5.067,-2.125 8.026,-2.125 v 0 c -4.48,4.648 -9.032,8.263 -14.028,11.163 v 0 c -8.494,4.931 -17.32,7.037 -26.351,7.037 v 0 c -4.748,0 -9.554,-0.583 -14.396,-1.643" /></g></g></g></g><g
       id="g164"><g
         id="g166"><g
           id="g172"><g
             id="g174"><path
               id="path188"
               style="fill:url(#linearGradient186);stroke:none"
               d="m 179.866,213.358 c -2.546,-1.704 -2.924,-3.019 -1.206,-6.344 v 0 c 10.172,-19.677 25.314,-30.169 47.905,-30.538 v 0 c 4.632,0.151 11.076,1.528 17.199,4.489 v 0 c 2.85,1.378 8.411,4.062 6.925,7.86 v 0 c -1.17,4.319 -8.228,0.677 -9.742,-0.325 v 0 c -6.821,-4.519 -13.907,-5.401 -21.766,-3.762 v 0 c -13.616,2.84 -24.98,9.126 -32.445,22.615 v 0 c -0.852,1.537 -1.596,3.149 -2.358,4.745 v 0 c -0.664,1.395 -1.475,2.035 -2.44,2.035 v 0 c -0.626,0 -1.316,-0.269 -2.072,-0.775" /></g></g></g></g><g
       id="g190"><g
         id="g192"><g
           id="g198"><g
             id="g200"><path
               id="path214"
               style="fill:url(#linearGradient212);stroke:none"
               d="m 194.855,226.546 c -3.063,-1.623 -3.998,-3.277 -2.643,-6.145 v 0 c 6.948,-14.707 18.536,-24.44 34.381,-25.096 v 0 c 5.523,0.467 11.319,1.087 16.769,3.655 v 0 c 2.94,1.385 3.304,2.989 1.976,6.676 v 0 c -1.161,3.226 -2.885,2.121 -4.831,1.16 v 0 c -15.756,-7.782 -34.323,-0.087 -41.696,17.254 v 0 c -0.622,1.463 -1.132,2.941 -2.48,2.941 v 0 c -0.407,0 -0.89,-0.135 -1.476,-0.445" /></g></g></g></g><g
       id="g216"><g
         id="g218"><g
           id="g224"><g
             id="g226"><path
               id="path240"
               style="fill:url(#linearGradient238);stroke:none"
               d="m 205.907,239.141 c -1.856,-2.427 -1.372,-4.94 -0.085,-7.398 v 0 c 5.462,-10.427 13.705,-15.646 24.541,-16.12 v 0 c 4.075,0.238 8.098,1.091 11.782,3.309 v 0 c 2.429,1.464 2.664,3.481 1.273,6.846 v 0 c -1.146,2.772 -2.723,1.527 -4.267,0.777 v 0 c -4.793,-2.321 -9.722,-3.068 -14.816,-1.523 v 0 c -6.397,1.939 -10.387,6.772 -12.969,13.369 v 0 c -0.678,1.732 -1.618,2.591 -2.664,2.591 v 0 c -0.888,0 -1.851,-0.62 -2.795,-1.851" /></g></g></g></g><g
       id="g242"><g
         id="g244"><g
           id="g250"><g
             id="g252"><path
               id="path266"
               style="fill:url(#linearGradient264);stroke:none"
               d="m 242.549,96.927 0.074,19.337 -92.399,0.028 z" /></g></g></g></g><g
       id="g268"><g
         id="g270"><g
           id="g276"><g
             id="g278"><path
               id="path290"
               style="fill:url(#linearGradient288);stroke:none"
               d="m 292.29,194.446 c -5.704,-2.471 -10.453,-5.863 -14.248,-10.176 v 0 c -3.796,-4.314 -6.701,-9.414 -8.718,-15.3 v 0 c -2.017,-5.886 -3.025,-12.265 -3.025,-19.14 v 0 c 0,-6.695 0.943,-12.817 2.83,-18.365 v 0 c 1.886,-5.55 4.706,-10.311 8.457,-14.289 v 0 c 3.751,-3.975 8.426,-7.053 14.021,-9.232 v 0 c 5.595,-2.18 12.078,-3.27 19.453,-3.27 v 0 c 3.773,0 7.416,0.261 10.929,0.776 v 0 c 3.514,0.518 6.788,1.223 9.825,2.123 v 0 14.221 c -2.995,-1.035 -6.203,-1.82 -9.629,-2.359 v 0 c -3.427,-0.54 -6.789,-0.809 -10.084,-0.809 v 0 c -4.598,0 -8.709,0.684 -12.33,2.056 v 0 c -3.621,1.37 -6.69,3.403 -9.205,6.099 v 0 c -2.517,2.696 -4.446,6.054 -5.791,10.076 v 0 c -1.344,4.02 -2.017,8.682 -2.017,13.984 v 0 c 0,5.347 0.737,10.099 2.213,14.255 v 0 c 1.474,4.155 3.523,7.649 6.147,10.479 v 0 c 2.625,2.831 5.769,4.987 9.434,6.471 v 0 c 3.664,1.482 7.667,2.224 12.004,2.224 v 0 c 2.862,0 5.789,-0.226 8.784,-0.675 v 0 c 2.991,-0.45 6.222,-1.236 9.693,-2.358 v 0 14.018 c -2.646,0.943 -5.617,1.674 -8.914,2.191 v 0 c -3.295,0.515 -6.788,0.775 -10.475,0.775 v 0 c -7.199,-0.046 -13.651,-1.304 -19.354,-3.775" /></g></g></g></g><g
       id="g292"><g
         id="g294"><g
           id="g300"><g
             id="g302"><path
               id="path314"
               style="fill:url(#linearGradient312);stroke:none"
               d="M 374.198,196.535 339.653,106.36 h 19.475 l 6.444,19.112 h 32.444 l 5.969,-19.112 h 19.333 l -34.547,90.175 z m -0.923,-45.351 c 2.386,6.333 5.101,14.216 8.145,23.65 v 0 h 0.26 c 3.07,-9.377 5.785,-17.261 8.144,-23.65 v 0 l 2.145,-5.785 -20.905,-0.181 z" /></g></g></g></g><g
       id="g316"><g
         id="g318"><g
           id="g324"><g
             id="g326"><path
               id="path338"
               style="fill:url(#linearGradient336);stroke:none"
               d="m 481.096,196.535 -21.409,-32.896 -20.814,32.896 h -20.141 l 32.985,-53.848 V 106.36 h 15.94 v 36.327 l 32.984,53.848 z" /></g></g></g></g><g
       id="g340"><g
         id="g342"><g
           id="g348"><g
             id="g350"><path
               id="path362"
               style="fill:url(#linearGradient360);stroke:none"
               d="M 605.646,196.535 V 106.36 h 20.69 c 5.855,0 11.125,0.358 15.809,1.078 v 0 c 4.684,0.719 8.87,1.798 12.556,3.236 v 0 c 4.424,1.707 8.252,3.896 11.483,6.57 v 0 c 3.231,2.673 5.909,5.763 8.035,9.267 v 0 c 2.125,3.505 3.708,7.38 4.749,11.625 v 0 c 1.04,4.247 1.562,8.796 1.562,13.649 v 0 c 0,5.122 -0.619,9.873 -1.854,14.254 v 0 c -1.236,4.38 -3.059,8.346 -5.466,11.895 v 0 c -2.406,3.549 -5.389,6.627 -8.945,9.234 v 0 c -3.557,2.604 -7.656,4.671 -12.296,6.2 v 0 c -1.562,0.539 -3.276,0.999 -5.14,1.381 v 0 c -1.865,0.382 -3.796,0.708 -5.79,0.978 v 0 c -1.996,0.269 -4.045,0.471 -6.148,0.606 v 0 c -2.105,0.134 -4.175,0.202 -6.213,0.202 v 0 z m 19.45,-13.815 h 3.516 c 3.774,0 7.178,-0.226 10.215,-0.674 v 0 c 3.035,-0.45 5.79,-1.169 8.262,-2.158 v 0 c 2.645,-1.078 5.02,-2.449 7.124,-4.111 v 0 c 2.104,-1.662 3.892,-3.65 5.368,-5.963 v 0 c 1.474,-2.316 2.602,-4.955 3.383,-7.919 v 0 c 0.781,-2.967 1.171,-6.291 1.171,-9.975 v 0 c 0,-7.055 -1.193,-12.851 -3.578,-17.389 v 0 c -2.386,-4.538 -5.9,-7.998 -10.54,-10.379 v 0 c -5.248,-2.651 -12.535,-3.976 -21.859,-3.976 v 0 h -3.507 z" /></g></g></g></g><g
       id="g364"><g
         id="g366"><g
           id="g372"><g
             id="g374"><path
               id="path386"
               style="fill:url(#linearGradient384);stroke:none"
               d="m 697.444,106.36 h 18.096 v 90.175 h -18.096 z" /></g></g></g></g><g
       id="g388"><g
         id="g390"><g
           id="g396"><g
             id="g398"><path
               id="path410"
               style="fill:url(#linearGradient408);stroke:none"
               d="m 561.861,197.587 c -0.118,-32.602 -0.106,-23.666 -0.118,-32.602 v 0 c -0.011,-8.192 0.134,-16.391 -0.113,-24.574 v 0 c -0.227,-7.522 -5.405,-13.139 -12.102,-13.706 v 0 c -6.859,-0.579 -12.23,4.033 -13.64,11.652 v 0 c -0.388,2.101 -0.496,4.208 -0.494,6.342 v 0 c 0.009,15.959 -0.331,41.628 -0.144,52.871 v 0 c -4.301,0.039 -17.044,0.002 -21.346,-0.037 v 0 c 0.079,-5.415 0.072,-22.843 0.072,-31.886 v 0 h 0.046 c 0,-8.831 -0.307,-17.677 0.072,-26.488 v 0 c 0.574,-13.357 5.525,-24.025 16.837,-29.994 v 0 c 6.921,-3.653 14.36,-4.148 21.88,-3.743 v 0 c 18.211,0.979 30.27,14.27 30.635,34.453 v 0 c 0.32,17.761 0.172,57.712 0.172,57.712 v 0 c 0,0 -7.8,0.004 -14.247,0.004 v 0 c -3.223,0 -6.108,-0.001 -7.51,-0.004" /></g></g></g></g><text
       id="text414"
       style="font-variant:normal;font-weight:bold;font-stretch:normal;font-size:35.58160019px;font-family:Corbel;-inkscape-font-specification:Corbel-Bold;writing-mode:lr-tb;fill:#37bbed;fill-opacity:1;fill-rule:nonzero;stroke:none"
       transform="matrix(0.90920869,0,0,-1,286.332,69.9092)"><tspan
         id="tspan412"
         y="0"
         x="0 20.779654 39.033016 58.780804 72.266228 84.719788 104.432 111.7618 131.61633 149.86971 157.19951 175.52403 193.81297 213.20494 233.05948 251.384 258.71381 277.03833 286.00491 293.33472 313.18924 322.03128 340.3558 359.92569 379.67346 399.38568 414.47226 427.9577 436.79971 452.49121">Centro de ayuda al diagnóstico</tspan></text>
</g></svg>