<svg width="18" height="17" viewBox="0 0 18 17" fill="none" xmlns="http://www.w3.org/2000/svg">
<path id="Vector" d="M17.5276 12.0579C17.5276 9.79848 15.9323 8.05685 13.4455 8.15097C13.6801 4.9972 16.12 2.26704 17.7622 0.996115L17.293 0.290039C13.8678 2.45533 9.55104 6.92714 9.55104 11.5401C9.55104 14.1762 11.0525 16.1061 13.4924 16.1061C15.9323 16.1061 17.5276 14.2232 17.5276 12.0579ZM7.98434 12.0579C7.98434 9.79848 6.38902 8.05685 3.9022 8.15097C4.13681 4.9972 6.57669 2.26704 8.21892 0.996115L7.74973 0.290039C4.32448 2.45533 0.00775146 6.92714 0.00775146 11.5401C0.00775146 14.1762 1.50922 16.1061 3.94911 16.1061C6.38902 16.1061 7.98434 14.2232 7.98434 12.0579Z" fill="#57baa3"/>
</svg>
