<svg width="16" height="21" viewBox="0 0 16 21" fill="none" xmlns="http://www.w3.org/2000/svg">
<g id="icon-video">
<path id="Vector" d="M13.9998 4.6261H1.99984C1.25984 4.6261 0.666504 5.21932 0.666504 5.95917V13.9576C0.666504 14.3112 0.80698 14.6502 1.05703 14.9002C1.30708 15.1502 1.64622 15.2907 1.99984 15.2907H5.33317V16.6238H10.6665V15.2907H13.9998C14.7332 15.2907 15.3265 14.6908 15.3265 13.9576L15.3332 5.95917C15.3332 5.60562 15.1927 5.26655 14.9426 5.01655C14.6926 4.76655 14.3535 4.6261 13.9998 4.6261ZM13.9998 13.9576H1.99984V5.95917H13.9998V13.9576ZM10.6665 9.9584L5.99984 12.6245V7.29225L10.6665 9.9584Z" fill="#2D2F31"/>
</g>
</svg>
